<svg class="cloud2" xmlns="http://www.w3.org/2000/svg" viewBox="0 0 300 147.1"><path d="M273.8 67.2c-3.1-8.7-11.3-14.9-21.1-14.9 -1 0-2 0.2-2.9 0.3C247.3 41 237 32.3 224.7 32.3c-1.8 0-3.5 0.2-5.2 0.5C216.5 14.2 200.6 0 181.2 0 167.8 0 156 6.7 149 17c-7.5-4.5-16.2-7.1-25.5-7.1 -27.4 0-49.6 22.2-49.6 49.6 0 1 0.1 2 0.2 3C68.7 63 63.8 65.3 60 68.7c-5.6-2.8-11.9-4.4-18.6-4.4C18.5 64.3 0 82.8 0 105.7c0 0.2 0 0.3 0 0.5 0 0.2 0 0.3 0 0.5 0 0.2 0 0.4 0 0.6 0.8 21.3 17.6 38.5 38.8 39.8 0 0 0 0 0 0h0.1c0.8 0 221.4 0.1 222.2 0h0.1c0 0 0 0 0 0 11.6-0.7 22-6.3 29.1-14.6 6.1-7.2 9.7-16.5 9.7-26.7C300 88.2 289.2 73.3 273.8 67.2z"/></svg>
