<svg xmlns="http://www.w3.org/2000/svg" viewBox="0 0 193.5 302.7"><metadata><?xpacket begin="﻿" id="W5M0MpCehiHzreSzNTczkc9d"?>
<x:xmpmeta xmlns:x="adobe:ns:meta/" x:xmptk="Adobe XMP Core 5.6-c137 79.159768, 2016/08/11-13:24:42        ">
   <rdf:RDF xmlns:rdf="http://www.w3.org/1999/02/22-rdf-syntax-ns#">
      <rdf:Description rdf:about=""/>
   </rdf:RDF>
</x:xmpmeta>
                                                                                                    
                                                                                                    
                                                                                                    
                                                                                                    
                                                                                                    
                                                                                                    
                                                                                                    
                                                                                                    
                                                                                                    
                                                                                                    
                                                                                                    
                                                                                                    
                                                                                                    
                                                                                                    
                                                                                                    
                                                                                                    
                                                                                                    
                                                                                                    
                                                                                                    
                                                                                                    
                           
<?xpacket end="w"?></metadata>
<style type="text/css">
		.st0{fill:#F6975A;}
		.st1{fill:#D95566;}
		.st2{fill:#C1C0C4;}
		.st3{fill:#3A3A3A;}
	</style><path class="st0" d="M151.1 24.5l-28.2 28.2c-5.6 5.6-8.8 13.3-8.8 21.3v9.9l37.1-37.1V24.5z"/><path class="st1" d="M37.1 79.4c0-0.7 0.3-1.4 0.8-1.9L0 39.7v44.8l37.1 37.1V79.4z"/><polygon class="st2" points="37.1 121.5 0 84.5 0 151.6 37.1 188.7 "/><polygon class="st1" points="37.1 188.7 0 151.6 0 174 37.1 211.1 "/><path class="st1" d="M37.1 233.5L0 196.4v9.9c0 8 3.2 15.6 8.8 21.3l28.2 28.2V233.5z"/><path class="st2" d="M39.7 0C17.8 0 0 17.8 0 39.7l37.8 37.8c0.5-0.5 1.1-0.8 1.9-0.8 1.5 0 2.6 1.2 2.6 2.6v42.1l37.1-37.1V39.7v0C79.4 17.8 61.6 0 39.7 0z"/><polygon class="st1" points="42.3 121.5 42.3 233.5 79.4 196.4 79.4 84.5 "/><path class="st1" d="M42.3 255.8v22.4L70.6 250c5.6-5.6 8.8-13.3 8.8-21.3v-9.9L42.3 255.8z"/><path class="st3" d="M39.7 302.7c-1.5 0-2.6-1.2-2.6-2.6V79.4c0-1.5 1.2-2.6 2.6-2.6 1.5 0 2.6 1.2 2.6 2.6v220.6C42.3 301.5 41.2 302.7 39.7 302.7"/><path class="st0" d="M156.4 181.2v42.1c0 1.5-1.2 2.6-2.6 2.6 -0.7 0-1.4-0.3-1.9-0.8L114.1 263c0 21.9 17.8 39.7 39.7 39.7 21.9 0 39.7-17.8 39.7-39.7v0 -44.8L156.4 181.2z"/><polygon class="st2" points="156.4 114 156.4 181.2 193.5 218.2 193.5 151.1 "/><polygon class="st0" points="156.4 91.6 156.4 114 193.5 151.1 193.5 128.7 "/><path class="st0" d="M184.7 75.1l-28.2-28.2v22.4l37.1 37.1v-9.9C193.5 88.4 190.3 80.7 184.7 75.1z"/><path class="st2" d="M151.1 223.3v-42.1l-37.1 37.1V263l37.8-37.8C151.4 224.7 151.1 224 151.1 223.3z"/><polygon class="st0" points="151.1 69.2 114.1 106.3 114.1 218.2 151.1 181.2 "/><path class="st3" d="M153.8 0c1.5 0 2.6 1.2 2.6 2.6v220.6c0 1.5-1.2 2.6-2.6 2.6 -1.5 0-2.6-1.2-2.6-2.6V2.6C151.1 1.2 152.3 0 153.8 0"/>
</svg>
