<svg class="finch" xmlns="http://www.w3.org/2000/svg" viewBox="0 0 300 286"><style type="text/css">
	.st0{fill:#BEBDC2;}
	.st1{fill:#D68765;}
	.st2{fill:#F7995B;}
	.st3{fill:#F9F9FA;}
	.st4{fill:#9F604F;}
	.st5{fill:#FBFCFC;}
	.st6{fill:#3A3A3A;}
	.st7{fill:#B5B4B9;}
	.st8{fill:#231F20;}
	.beak-bottom{fill:#C91E36;}
	.st10{fill:#DA5666;}
	.st11{fill:#FFFFFF;}
	.st12{fill:#AE5349;}
	</style><path class="st0" d="M91.6 29.6c0 0-3.3-8-3.7-8.7C79.5 2.3 54.7-4.4 35.2 2.9 11.8 11.9 0 33.5 0 58.9c0 5.8 0 47.6 0 65.2h91.6V29.6L91.6 29.6z"/><path class="st1" d="M163.7 276.1H99.5l24.4-42.2h-11.4l-24.4 42.2H53.8c0 0-10 0-10.2 9.9h130.3C173.8 284.4 172.9 276.1 163.7 276.1z"/><path class="st2" d="M163.7 276.1h-13.3l24.4-42.2h-11.4L139 276.1h-33.3c0 0-10 0-10.2 9.9h78.4C173.8 284.4 172.9 276.1 163.7 276.1z"/><path class="st3" d="M202.7 182.7L91.5 124.1H0c0 60.6 49.2 109.8 109.8 109.8H300L202.7 182.7"/><path class="st4" d="M233.8 199L91.6 124.1c0 0.5 0 1 0 1.5l0 0c0.1 12.8 4.1 25.9 11.7 37.6 0.1 0 0.1 0 0.2 0 0.6 0 1.2 0.1 1.8 0.4 1.8 0.9 2.6 3.1 1.8 5 3.1 4 6.7 7.8 10.7 11.4 14 12.2 31 18.5 47.2 18.9 0.8-1.1 2-1.7 3.2-1.7 0.6 0 1.2 0.1 1.8 0.5 0.6 0.3 1.1 0.8 1.4 1.3H182h-0.1c-1.9-1-2.7-3.4-1.7-5.3 0.7-1.3 2.1-2.1 3.5-2.1 0.6 0 1.2 0.1 1.8 0.5 1.9 1 2.7 3.4 1.7 5.3 -0.4 0.8-1 1.4-1.8 1.7h26.2c-0.2-0.9-0.1-1.8 0.4-2.6 0.7-1.3 2.1-2.1 3.5-2.1 0.6 0 1.2 0.1 1.8 0.5 1.6 0.8 2.4 2.6 2 4.3h14.5V199zM98.7 136.8c0.7-1.3 2.1-2.1 3.5-2.1 0.6 0 1.2 0.1 1.8 0.5 1.9 1 2.7 3.4 1.7 5.3 -0.7 1.3-2.1 2.1-3.5 2.1 -0.6 0-1.2-0.1-1.8-0.5C98.4 141.1 97.6 138.7 98.7 136.8zM106.3 154.8c-0.7 1.3-2.1 2.1-3.5 2.1 -0.6 0-1.2-0.1-1.8-0.5 -1.9-1-2.7-3.4-1.7-5.3 0.7-1.3 2.1-2.1 3.5-2.1 0.6 0 1.2 0.1 1.8 0.5C106.6 150.4 107.3 152.8 106.3 154.8zM114.9 145.3c0.7-1.3 2.1-2.1 3.5-2.1 0.6 0 1.2 0.1 1.8 0.5 1.9 1 2.7 3.4 1.7 5.3 -0.7 1.3-2.1 2.1-3.5 2.1 -0.6 0-1.2-0.1-1.8-0.5C114.6 149.6 113.8 147.3 114.9 145.3zM115.5 159.6c0.7-1.3 2.1-2.1 3.5-2.1 0.6 0 1.2 0.1 1.8 0.5 1.9 1 2.7 3.4 1.7 5.3 -0.7 1.3-2.1 2.1-3.5 2.1 -0.6 0-1.2-0.1-1.8-0.5C115.2 163.9 114.5 161.5 115.5 159.6zM123.1 177.5c-0.7 1.3-2.1 2.1-3.5 2.1 -0.6 0-1.2-0.1-1.8-0.5 -1.9-1-2.7-3.4-1.7-5.3 0.7-1.3 2.1-2.1 3.5-2.1 0.6 0 1.2 0.1 1.8 0.5C123.4 173.2 124.2 175.6 123.1 177.5zM131.1 153.8c0.7-1.3 2.1-2.1 3.5-2.1 0.6 0 1.2 0.1 1.8 0.5 1.9 1 2.7 3.4 1.7 5.3 -0.7 1.3-2.1 2.1-3.5 2.1 -0.6 0-1.2-0.1-1.8-0.5C130.8 158.1 130.1 155.8 131.1 153.8zM131.7 168.1c0.7-1.3 2.1-2.1 3.5-2.1 0.6 0 1.2 0.1 1.8 0.5 1.9 1 2.7 3.4 1.7 5.3 -0.7 1.3-2.1 2.1-3.5 2.1 -0.6 0-1.2-0.1-1.8-0.5C131.4 172.4 130.7 170 131.7 168.1zM139.3 186c-0.7 1.3-2.1 2.1-3.5 2.1 -0.6 0-1.2-0.1-1.8-0.5 -1.9-1-2.7-3.4-1.7-5.3 0.7-1.3 2.1-2.1 3.5-2.1 0.6 0 1.2 0.1 1.8 0.5C139.6 181.7 140.4 184.1 139.3 186zM147.3 162.3c0.7-1.3 2.1-2.1 3.5-2.1 0.6 0 1.2 0.1 1.8 0.5 1.9 1 2.7 3.4 1.7 5.3 -0.7 1.3-2.1 2.1-3.5 2.1 -0.6 0-1.2-0.1-1.8-0.5C147 166.7 146.3 164.3 147.3 162.3zM147.9 176.6c0.7-1.3 2.1-2.1 3.5-2.1 0.6 0 1.2 0.1 1.8 0.5 1.9 1 2.7 3.4 1.7 5.3 -0.7 1.3-2.1 2.1-3.5 2.1 -0.6 0-1.2-0.1-1.8-0.5C147.6 180.9 146.9 178.5 147.9 176.6zM155.5 194.5c-0.7 1.3-2.1 2.1-3.5 2.1 -0.6 0-1.2-0.1-1.8-0.5 -1.9-1-2.7-3.4-1.7-5.3 0.7-1.3 2.1-2.1 3.5-2.1 0.6 0 1.2 0.1 1.8 0.5C155.8 190.2 156.6 192.6 155.5 194.5zM163.5 170.8c0.7-1.3 2.1-2.1 3.5-2.1 0.6 0 1.2 0.1 1.8 0.5 1.9 1 2.7 3.4 1.7 5.3 -0.7 1.3-2.1 2.1-3.5 2.1 -0.6 0-1.2-0.1-1.8-0.5C163.2 175.2 162.5 172.8 163.5 170.8zM171.1 188.8c-0.7 1.3-2.1 2.1-3.5 2.1 -0.6 0-1.2-0.1-1.8-0.5 -1.9-1-2.7-3.4-1.7-5.3 0.7-1.3 2.1-2.1 3.5-2.1 0.6 0 1.2 0.1 1.8 0.5C171.4 184.5 172.1 186.9 171.1 188.8zM186.7 183c-0.7 1.3-2.1 2.1-3.5 2.1 -0.6 0-1.2-0.1-1.8-0.5 -1.9-1-2.7-3.4-1.7-5.3 0.7-1.3 2.1-2.1 3.5-2.1 0.6 0 1.2 0.1 1.8 0.5C186.9 178.7 187.7 181.1 186.7 183zM202.9 191.5c-0.7 1.3-2.1 2.1-3.5 2.1 -0.6 0-1.2-0.1-1.8-0.5 -1.9-1-2.7-3.4-1.7-5.3 0.7-1.3 2.1-2.1 3.5-2.1 0.6 0 1.2 0.1 1.8 0.5C203.1 187.2 203.9 189.6 202.9 191.5z"/><path class="st5" d="M219.4 199h-7.7l0 0H219.4L219.4 199M185.5 199h-3.4l0 0H185.5L185.5 199M165.8 199L165.8 199c-0.1 0-0.1 0-0.1 0S165.7 199 165.8 199L165.8 199"/><polygon class="st6" points="0 102.3 0 102.4 91.6 102.4 91.6 99.8 4 99.8 "/><polygon class="st6" points="9.6 96.5 91.6 96.5 91.6 93.9 13.7 93.9 "/><polygon class="st6" points="19.3 90.6 91.6 90.6 91.6 88 23.4 88 "/><polygon class="st6" points="29 84.6 91.6 84.6 91.6 82.1 33.1 82.1 "/><rect y="105.8" class="st6" width="91.6" height="2.5"/><rect y="111.7" class="st6" width="91.6" height="2.5"/><rect y="117.6" class="st6" width="91.6" height="2.5"/><polygon class="st6" points="67.7 61 91.6 61 91.6 58.5 71.9 58.5 "/><polygon class="st6" points="38.6 78.7 91.6 78.7 91.6 76.2 42.8 76.2 "/><polygon class="st6" points="91.2 46.7 87.1 49.2 91.6 49.2 91.6 46.7 "/><polygon class="st6" points="77.4 55.1 91.6 55.1 91.6 52.6 81.5 52.6 "/><polygon class="st6" points="58 66.9 91.6 66.9 91.6 64.4 62.2 64.4 "/><polygon class="st6" points="48.3 72.8 91.6 72.8 91.6 70.3 52.5 70.3 "/><path class="st6" d="M45.8 155.4c20.8 0 38.6-13 45.7-31.3H0.1C7.2 142.4 25 155.4 45.8 155.4z"/><polygon class="st7" points="91.6 69.5 91.6 124.1 91.5 124.1 299.2 233.4 299.2 233.4 299.2 233.4 233.8 199 255.5 199 "/><polygon class="st8" points="299.2 233.4 299.2 233.4 255.5 199 233.8 199 299.2 233.4 "/><path class="beak-bottom" d="M113.6 32.6c-0.1-0.1-0.3-0.3-0.5-0.3H81.5v3.2 17l31.9-19.4C113.6 33 113.7 32.8 113.6 32.6z"/><path class="st10" d="M81.4 13L81.4 13c-0.2 0-0.2 0.1-0.3 0.1C81.2 13.1 81.3 13 81.4 13z"/><path class="st10" d="M114.8 31.6c-4-3.3-8.9-6.7-14.2-9.8l0 0c-6.6-3.8-13-7-18.8-8.7l0 0c-0.1 0-0.1 0-0.2 0v24.1l32.9-4.2c0.3 0 0.5-0.2 0.6-0.5C115.1 32.1 115 31.8 114.8 31.6z"/><path class="st2" d="M48.6 31.5c-7.5 0-18.6 0-20.4 0 -10.4 0-14.9 12-6.2 22.6 11.1 13.5 24.9 15.8 30.5 16.2l-0.2-33.1C50.1 36.1 48.7 34 48.6 31.5z"/><path class="st11" d="M61.7 31.5c-0.1 2.6-1.7 4.7-3.9 5.7L58 66.9l16.5-10.1 0 0V35.5v-4H61.7z"/><polygon class="st6" points="58 66.9 57.8 32.4 52.2 32.5 52.5 70.3 "/><path class="st12" d="M55.1 23.7c-4.3 0-7.8 3.4-7.8 7.8 0 4.3 3.4 7.8 7.8 7.8s7.8-3.4 7.8-7.8C62.9 27.2 59.5 23.7 55.1 23.7zM59 31.5c0 2.1-1.8 3.9-3.9 3.9 -2.1 0-3.9-1.8-3.9-3.9s1.8-3.9 3.9-3.9c0.4 0 0.7 0.1 1.1 0.1 0.2-0.5 0.7-0.8 1.3-0.8 0.8 0 1.5 0.7 1.5 1.5 0 0.5-0.2 0.8-0.5 1.2C58.9 30.2 59 30.8 59 31.5z"/><path class="st6" d="M57.5 30.1c-0.8 0-1.5-0.7-1.5-1.5 0-0.2 0.1-0.6 0.2-0.8 -0.4-0.1-0.7-0.1-1.1-0.1 -2.1 0-3.9 1.8-3.9 3.9 0 2.1 1.8 3.9 3.9 3.9s3.9-1.8 3.9-3.9c0-0.7-0.2-1.3-0.5-1.9C58.3 30 58 30.1 57.5 30.1z"/><path class="st11" d="M57.5 30.1c0.8 0 1.5-0.7 1.5-1.5 0-0.8-0.7-1.5-1.5-1.5s-1.5 0.7-1.5 1.5C55.9 29.4 56.6 30.1 57.5 30.1L57.5 30.1z"/><path class="st6" d="M81.5 52.6L81.5 52.6V35.5 13c-3 0.9-7 3.3-7 9.7v12.8 21.3 0.1L81.5 52.6 81.5 52.6z"/>
</svg>
