<svg xmlns="http://www.w3.org/2000/svg" viewBox="0 0 76.4 57.1"><style type="text/css">  
		.st0{fill-rule:evenodd;clip-rule:evenodd;}
	</style><path class="st0" d="M76.4 39.4c-6.7-2.7-12 5.5-18.2 10.2 -6.5 4.9-14.5 7.5-22.7 7.5C19.8 57.1 5.7 47.5 0 32.9c6.7 1.9 13.5 2.9 20.4 3.3 1.6 4.7 4.1 9.2 7.7 13.2C18.6 33 22.6 11.7 38.1 0c4.2 14.7 10.6 28.9 19.1 41.6 -1.1-3.2-2-6.5-2.9-9.8 1.8-0.6 3.5-1.2 5.2-1.8C68.3 26.6 76.1 30.6 76.4 39.4L76.4 39.4zM68.2 35.5c-0.9 0-1.7-0.7-1.7-1.7 0-0.9 0.7-1.7 1.7-1.7 0.9 0 1.7 0.7 1.7 1.7C69.9 34.8 69.1 35.5 68.2 35.5L68.2 35.5z"/>
</svg>
